TITLE ""
FILE "Disc4Track51.mp3" MP3
  TRACK 01 AUDIO
    TITLE "Disc4Track51_01"
    INDEX 01 00:00:00
  TRACK 02 AUDIO
    TITLE "Disc4Track51_02"
    INDEX 01 00:01:08
  TRACK 03 AUDIO
    TITLE "Disc4Track51_03"
    INDEX 01 00:02:17
  TRACK 04 AUDIO
    TITLE "Disc4Track51_04"
    INDEX 01 00:03:38
  TRACK 05 AUDIO
    TITLE "Disc4Track51_05"
    INDEX 01 00:03:69
  TRACK 06 AUDIO
    TITLE "Disc4Track51_06"
    INDEX 01 00:05:06
  TRACK 07 AUDIO
    TITLE "Disc4Track51_07"
    INDEX 01 00:07:48
  TRACK 08 AUDIO
    TITLE "Disc4Track51_08"
    INDEX 01 00:08:61
  TRACK 09 AUDIO
    TITLE "Disc4Track51_09"
    INDEX 01 00:09:17
  TRACK 10 AUDIO
    TITLE "Disc4Track51_10"
    INDEX 01 00:10:48
  TRACK 11 AUDIO
    TITLE "Disc4Track51_11"
    INDEX 01 00:11:71
  TRACK 12 AUDIO
    TITLE "Disc4Track51_12"
    INDEX 01 00:13:27
  TRACK 13 AUDIO
    TITLE "Disc4Track51_13"
    INDEX 01 00:13:68
  TRACK 14 AUDIO
    TITLE "Disc4Track51_14"
    INDEX 01 00:15:04
  TRACK 15 AUDIO
    TITLE "Disc4Track51_15"
    INDEX 01 00:17:42
  TRACK 16 AUDIO
    TITLE "Disc4Track51_16"
    INDEX 01 00:18:51
  TRACK 17 AUDIO
    TITLE "Disc4Track51_17"
    INDEX 01 00:20:50
  TRACK 18 AUDIO
    TITLE "Disc4Track51_18"
    INDEX 01 00:21:09
  TRACK 19 AUDIO
    TITLE "Disc4Track51_19"
    INDEX 01 00:22:26
  TRACK 20 AUDIO
    TITLE "Disc4Track51_20"
    INDEX 01 00:24:62
  TRACK 21 AUDIO
    TITLE "Disc4Track51_21"
    INDEX 01 00:26:06
  TRACK 22 AUDIO
    TITLE "Disc4Track51_22"
    INDEX 01 00:26:37
  TRACK 23 AUDIO
    TITLE "Disc4Track51_23"
    INDEX 01 00:27:44
  TRACK 24 AUDIO
    TITLE "Disc4Track51_24"
    INDEX 01 00:29:30
  TRACK 25 AUDIO
    TITLE "Disc4Track51_25"
    INDEX 01 00:30:39
  TRACK 26 AUDIO
    TITLE "Disc4Track51_26"
    INDEX 01 00:31:03
  TRACK 27 AUDIO
    TITLE "Disc4Track51_27"
    INDEX 01 00:32:18
  TRACK 28 AUDIO
    TITLE "Disc4Track51_28"
    INDEX 01 00:33:31
  TRACK 29 AUDIO
    TITLE "Disc4Track51_29"
    INDEX 01 00:34:46
  TRACK 30 AUDIO
    TITLE "Disc4Track51_30"
    INDEX 01 00:35:13
  TRACK 31 AUDIO
    TITLE "Disc4Track51_31"
    INDEX 01 00:36:30
  TRACK 32 AUDIO
    TITLE "Disc4Track51_32"
    INDEX 01 00:38:27
  TRACK 33 AUDIO
    TITLE "Disc4Track51_33"
    INDEX 01 00:39:44
  TRACK 34 AUDIO
    TITLE "Disc4Track51_34"
    INDEX 01 00:40:10
  TRACK 35 AUDIO
    TITLE "Disc4Track51_35"
    INDEX 01 00:41:21
  TRACK 36 AUDIO
    TITLE "Disc4Track51_36"
    INDEX 01 00:43:30
  TRACK 37 AUDIO
    TITLE "Disc4Track51_37"
    INDEX 01 00:44:43
  TRACK 38 AUDIO
    TITLE "Disc4Track51_38"
    INDEX 01 00:45:07
  TRACK 39 AUDIO
    TITLE "Disc4Track51_39"
    INDEX 01 00:46:18
  TRACK 40 AUDIO
    TITLE "Disc4Track51_40"
    INDEX 01 00:47:31
  TRACK 41 AUDIO
    TITLE "Disc4Track51_41"
    INDEX 01 00:48:43
  TRACK 42 AUDIO
    TITLE "Disc4Track51_42"
    INDEX 01 00:50:59
